<?xml version="1.0" ?><svg id="Слой_1" style="enable-background:new 0 0 192 192;" version="1.1" viewBox="0 0 192 192" xml:space="preserve" xmlns="http://www.w3.org/2000/svg" xmlns:xlink="http://www.w3.org/1999/xlink"><style type="text/css">
	.st0{fill:#FFFFFF;}
	.st1{fill:#E7EAEF;}
	.st2{fill-rule:evenodd;clip-rule:evenodd;fill:#E7EAEF;}
	.st3{fill-rule:evenodd;clip-rule:evenodd;fill:#CDD1DB;}
	.st4{fill-rule:evenodd;clip-rule:evenodd;}
	.st5{stroke:#000000;stroke-width:3;stroke-linecap:round;stroke-miterlimit:10;}
	.st6{fill-rule:evenodd;clip-rule:evenodd;fill:#FF6E50;}
	.st7{fill-rule:evenodd;clip-rule:evenodd;fill:#FF563B;}
	.st8{fill:none;stroke:#000000;stroke-width:4.5;stroke-linecap:round;stroke-miterlimit:10;}
	.st9{fill:#259CEF;}
	.st10{fill:#008AE0;}
	.st11{fill:#A7B4BF;}
</style><g><g><path class="st0" d="M96,156.3c-39.7,0-72-32.3-72-72c0-39.7,32.3-72,72-72c39.7,0,72,32.3,72,72C168,124,135.7,156.3,96,156.3z"/><path d="M96,14.5c38.5,0,69.8,31.2,69.8,69.8s-31.2,69.8-69.8,69.8s-69.8-31.2-69.8-69.8S57.5,14.5,96,14.5 M96,10    c-41,0-74.3,33.3-74.3,74.3S55,158.6,96,158.6s74.3-33.3,74.3-74.3S137,10,96,10L96,10z"/></g><g><path class="st1" d="M36.2,84.3c0-36.9,28.6-67,64.8-69.6c-1.7-0.1-3.3-0.2-5-0.2c-38.5,0-69.8,31.2-69.8,69.8    s31.2,69.8,69.8,69.8c1.7,0,3.3-0.1,5-0.2C64.8,151.3,36.2,121.1,36.2,84.3z"/></g></g><g><g><path class="st2" d="M96.6,148.8c-19.7,0-35.8-12.6-35.8-28s16-28,35.8-28c19.7,0,35.8,12.6,35.8,28S116.3,148.8,96.6,148.8z"/><path d="M96.6,95c18.5,0,33.5,11.5,33.5,25.8c0,14.2-15,25.8-33.5,25.8S63.1,135,63.1,120.8C63.1,106.5,78.1,95,96.6,95     M96.6,90.5c-21,0-38,13.6-38,30.3s17,30.3,38,30.3s38-13.6,38-30.3S117.6,90.5,96.6,90.5L96.6,90.5z"/></g><g><path class="st3" d="M73.1,120.8c0-12.9,12.4-23.6,28.5-25.5c-1.6-0.2-3.3-0.3-5-0.3c-18.5,0-33.5,11.5-33.5,25.8    s15,25.8,33.5,25.8c1.7,0,3.4-0.1,5-0.3C85.5,144.4,73.1,133.7,73.1,120.8z"/></g><g><circle class="st4" cx="96.6" cy="111.7" r="2.4"/></g><g><circle class="st4" cx="96.6" cy="122.5" r="2.4"/></g><g><circle class="st4" cx="96.6" cy="133.4" r="2.4"/></g><g id="face"><path class="st2" d="M96.6,100.3c-13.1,0-23.8-8.6-23.8-19.3s10.7-19.3,23.8-19.3s23.8,8.6,23.8,19.3S109.7,100.3,96.6,100.3z"/><path d="M96.6,64c11.9,0,21.5,7.6,21.5,17s-9.6,17-21.5,17s-21.5-7.6-21.5-17S84.8,64,96.6,64 M96.6,59.5c-14.3,0-26,9.6-26,21.5    s11.7,21.5,26,21.5s26-9.6,26-21.5S111,59.5,96.6,59.5L96.6,59.5z"/></g><g><path class="st3" d="M85.1,81c0-8,7-14.7,16.5-16.5c-1.6-0.3-3.3-0.5-5-0.5c-11.9,0-21.5,7.6-21.5,17s9.6,17,21.5,17    c1.7,0,3.4-0.2,5-0.5C92.2,95.7,85.1,89,85.1,81z"/></g><line class="st5" x1="83.5" x2="94.3" y1="84" y2="84"/><path class="st5" d="M91.5,89.7c3.3,2.7,6.7,2.7,10,0"/><g><circle class="st4" cx="88" cy="78" r="2.4"/></g><g><circle class="st4" cx="105.4" cy="78" r="2.4"/></g><g><path class="st6" d="M96.7,70.9c-4.8,0-9.5-0.9-14-2.7l-1.8-0.7l6.1-26.7h20.3l6.1,26.8l-1.9,0.7C106.4,70,101.4,70.9,96.7,70.9z"/><path d="M105.4,43l5.2,23.1c-4.7,1.7-9.4,2.6-14,2.6c-4.5,0-8.9-0.8-13.2-2.6L88.7,43H105.4 M109,38.5h-3.6H88.7h-3.6L84.3,42    l-5.2,23.1l-0.9,3.8l3.6,1.4c4.8,1.9,9.8,2.9,14.9,2.9c5,0,10.2-0.9,15.5-2.8l3.8-1.3l-0.9-3.9L109.8,42L109,38.5L109,38.5z"/></g><g><path class="st7" d="M93.5,66.1L98.7,43h-10l-5.2,23.1c6,2.4,12,3,18.2,2.2C98.9,67.9,96.2,67.2,93.5,66.1z"/></g><g><line class="st8" x1="53.4" x2="73.5" y1="87" y2="105.9"/></g><line class="st8" x1="138.6" x2="118.6" y1="86" y2="106.8"/></g><g><g><path class="st9" d="M95.7,182.5c-15.3,0-30.8-1.2-46-3.7c-1.9-0.3-3.5-1.4-4.5-3c-1-1.6-1.2-3.6-0.7-5.4l7.1-22.8    c0.9-2.7,3.4-4.6,6.2-4.6c0.5,0,0.9,0.1,1.4,0.2c12.2,2.7,24.6,4.1,36.8,4.1c12.2,0,24.5-1.4,36.6-4.1c0.5-0.1,0.9-0.2,1.4-0.2    c2.9,0,5.4,1.8,6.2,4.6l7.1,22.8c0.6,1.8,0.3,3.8-0.7,5.4c-1,1.6-2.7,2.7-4.5,3C126.7,181.3,111.1,182.5,95.7,182.5z"/><path d="M57.9,145.3c0.3,0,0.6,0,0.9,0.1c12.5,2.8,24.9,4.1,37.3,4.1c12.4,0,24.8-1.4,37.1-4.1c0.3-0.1,0.6-0.1,0.9-0.1    c1.8,0,3.5,1.2,4.1,3l7.1,22.8c0.8,2.5-0.8,5.1-3.4,5.5c-15.4,2.4-30.8,3.7-46.1,3.7c-15.2,0-30.4-1.2-45.6-3.7    c-2.6-0.4-4.2-3-3.4-5.5l7.1-22.8C54.4,146.5,56.1,145.3,57.9,145.3 M57.9,140.8c-3.8,0-7.2,2.5-8.4,6.2l-7.1,22.8    c-0.8,2.4-0.4,5.1,0.9,7.2c1.3,2.2,3.6,3.7,6.1,4.1c15.3,2.5,30.9,3.7,46.3,3.7c15.5,0,31.2-1.3,46.8-3.7c2.5-0.4,4.8-1.9,6.1-4.1    c1.3-2.2,1.7-4.8,0.9-7.2l-7.1-22.8c-1.2-3.7-4.5-6.2-8.4-6.2c-0.6,0-1.3,0.1-1.9,0.2c-12,2.7-24.1,4-36.1,4    c-12,0-24.2-1.4-36.3-4C59.1,140.8,58.5,140.8,57.9,140.8L57.9,140.8z"/></g><g><path class="st10" d="M60.1,176.6c-2.6-0.4-4.2-3-3.4-5.5l7.1-22.8c0.2-0.7,0.6-1.2,1-1.7c-2-0.4-4-0.8-6.1-1.2    c-2.2-0.5-4.3,0.8-5,2.9l-7.1,22.8c-0.8,2.5,0.8,5.1,3.4,5.5c16.8,2.7,33.6,3.9,50.5,3.6C87.1,180,73.6,178.8,60.1,176.6z"/></g><path class="st8" d="M50.1,160.1c30.6,6.5,61.2,6.5,91.8,0"/></g><circle class="st11" cx="50.2" cy="44.6" r="3"/><circle class="st11" cx="61.3" cy="39.1" r="3.1"/><circle class="st11" cx="78.5" cy="36.5" r="3.1"/><circle class="st11" cx="87.4" cy="25.7" r="3.1"/><circle class="st11" cx="98.6" cy="33.4" r="3.1"/><circle class="st11" cx="112.1" cy="25.7" r="3.1"/><circle class="st11" cx="115.2" cy="39.7" r="3.1"/><circle class="st11" cx="129.9" cy="34.9" r="3.1"/><circle class="st11" cx="137.8" cy="50.2" r="3.1"/><circle class="st11" cx="133" cy="61" r="3.1"/><circle class="st11" cx="151.9" cy="69.3" r="5.1"/><circle class="st11" cx="157" cy="88.6" r="5.1"/><circle class="st11" cx="47.2" cy="61" r="5.1"/><circle class="st11" cx="37.1" cy="86.6" r="5.1"/></svg>